<svg width="268" height="240" fill="none" xmlns="http://www.w3.org/2000/svg">
  <animateTransform
    attributeName="transform"
    type="translate"
    from="-100, 0"
    to="0, 0"
    dur="0.3s"
    begin="2.55s"
    calcMode="paced"
    fill="freeze"
  />
  <path d="M62.1257 222.89c-1.2082-.084-2.1292-1.144-2.0362-2.356L73.7518 27.3658c1.0984-15.4856-4.7991-21.91893-8.7449-24.47021-1.0224-.66113-.6675-2.246139.5323-2.449564C73.9968-.952515 93.1595-.884707 91.0219 29.2899L77.4103 221.763c-.0845 1.212-1.1407 2.136-2.3489 2.043l-12.9357-.916z" fill="#fff"/>
  <path d="M95.4831 223.263c-1.2166-.017-2.1883-1.017-2.1714-2.229l2.239-193.6343c.1859-15.528-6.0749-21.60531-10.1643-23.91078-1.0646-.6018-.8027-2.20377.3886-2.475 8.3563-1.898625 27.494-2.9666 27.147 27.28428l-2.247 192.9308c-.017 1.221-1.014 2.195-2.222 2.178l-12.9699-.144z" fill="#fff"/>
</svg>
