<svg width="268" height="240" fill="none" xmlns="http://www.w3.org/2000/svg">
  <style type="text/css" >
    <![CDATA[
        #branch {
          transform-box: fill-box;
          transform-origin: 100% 100%;
          border: 1px solid red;
        }
      ]]>
  </style>
  <g id="branch">
    <animateTransform
      id="branchTranslate"
      attributeName="transform"
      type="translate"
      from="-100, 0"
      to="0, 0"
      dur="0.3s"
      begin="2.6s"
      calcMode="paced"
      fill="freeze"
    />
    <animateTransform
      attributeName="transform"
      type="rotate"
      values="7; -5; 3; -1; 0"
      keyTimes="0; 0.2; 0.5; 0.8; 1"
      dur="2s"
      begin="branchTranslate.end"
      calcMode="paced"
      additive="sum"
    />
    <path d="M50.1628 89.071c10.3501 13.753 15.5889 26.951 15.5892 26.924-.026-.007-9.8805-10.007-20.0767-23.5528-10.1723-13.5713-17.0656-25.8608-17.067-25.8819-.026-.0068 11.2265 8.7395 21.5545 22.5107zM51.9217 109.489c13.717 9.539 22.8115 20.511 22.7972 20.486-.0188.006-12.308-6.27-25.8398-15.708-13.5145-9.465-23.4122-18.6754-23.416-18.7007-.0229.0079 12.7525 4.3565 26.4586 13.9227z" fill="#36E69A"/>
    <path d="M64.6397 100.581c4.5676 16.471 10.0591 29.379 10.0792 29.394-.018.017.0967-13.847-4.4973-30.5216-4.5622-16.6772-12.0748-29.4609-12.0547-29.4452-.0139.0136 1.9368 14.1004 6.4728 30.5728z" fill="#36E69A"/>
    <path d="M78.2976 108.621c.0956 16.905 2.0515 30.654 2.0611 30.67-.0253.004 3.7837-13.013 3.7619-30.054.0083-17.0371-3.9654-31.378-3.9575-31.3551-.0188.0055-1.9287 13.8436-1.8655 30.7391z" fill="#25B774"/>
    <path d="M54.0653 124.656c15.1507 6.039 26.3119 14.657 26.2934 14.635-.0075.015-13.1664-3.197-28.1708-9.239-14.9934-6.071-26.3546-12.676-26.3683-12.69-.014.013 13.0993 1.224 28.2457 7.294zM59.0439 138.93c15.5918 4.071 27.5734 11.22 27.5556 11.209-.0027.023-13.3083-1.46-28.7838-5.605-15.4729-4.17-27.4089-9.318-27.4185-9.334-.0067.026 13.0592-.372 28.6467 3.73zM89.696 119.886c-2.7638 16.471-3.0979 30.231-3.0948 30.246-.0235-.003 5.9361-11.994 8.8243-28.543 2.9124-16.535 1.4159-31.2065 1.4214-31.1878-.0277-.0002-4.3588 13.0258-7.1509 29.4848z" fill="#25B774"/>
    <path d="M69.8408 157.14c15.4111 4.711 27.0834 12.354 27.0697 12.34-.0027.023-13.239-2.017-28.529-6.793-15.2898-4.804-26.9946-10.439-27.0042-10.455-.0067.026 13.0568.167 28.4635 4.908z" fill="#068E4D"/>
    <path d="M101.254 139.387c-3.4436 16.341-4.3466 30.078-4.3411 30.097-.0235-.003 6.4311-11.74 9.9951-28.158 3.595-16.402 2.706-31.116 2.711-31.097-.024-.003-4.893 12.828-8.365 29.158zM79.8784 175.79c15.2027 5.349 26.5566 13.481 26.5436 13.467-.006.019-13.1466-2.571-28.23-7.979-15.0814-5.443-26.5437-11.555-26.5533-11.571-.0068.025 13.0414.704 28.2397 6.083z" fill="#068E4D"/>
    <path d="M111.998 159.354c-4.117 16.186-5.586 29.887-5.579 29.899-.026-.007 6.906-11.475 11.148-27.729 4.268-16.247 3.994-30.981 3.993-30.964-.024-.003-5.419 12.614-9.562 28.794z" fill="#068E4D"/>
    <path d="M63.5976 112.768c23.1814 34.376 42.2784 71.413 56.8604 110.366" stroke="#36E69A" stroke-width="2" stroke-miterlimit="10" stroke-linecap="round" stroke-linejoin="round"/>
  </g>
</svg>
