<svg width="268" height="240" fill="none" xmlns="http://www.w3.org/2000/svg">
  <animateTransform
    attributeName="transform"
    type="translate"
    from="-100, 0"
    to="0, 0"
    dur="0.3s"
    begin="2.5s"
    calcMode="paced"
    fill="freeze"
  />
  <path d="M228.482 154.913h-60.741v-14.189h55.089c5.466 0 9.902 4.45 9.902 9.934-.008 2.348-1.909 4.255-4.25 4.255zM156.453 223.407h-13.966l-6.312-41.591h13.967l6.311 41.591zM206.008 223.407h-13.967l-6.303-41.591h13.967l6.303 41.591z" fill="#A67EE5" stroke="#fff" stroke-width="2" stroke-miterlimit="10"/>
  <path d="M252.309 167.551h-55.891c-2.763 0-5.112-2.026-5.526-4.772l-10.857-72.2415c4.174-3.5006 6.717-8.8998 6.303-14.8839-.608-8.7387-7.672-15.8247-16.383-16.4265-.811-.0593-1.614-.0508-2.408 0h-55.089l-.312 102.8899 15.766 23.352 47.189 8.391c1.326.483 2.746.754 4.224.754h72.984c7.452 0 13.485-6.06 13.485-13.527 0-7.476-6.033-13.536-13.485-13.536z" fill="#A67EE5" stroke="#fff" stroke-width="2" stroke-miterlimit="10"/>
  <path d="M133.404 162.787l-10.857-72.241c4.174-3.5006 6.717-8.8998 6.303-14.8839-.608-8.7387-7.672-15.8247-16.383-16.4265-10.333-.712-18.9345 7.4844-18.9345 17.6979 0 1.8309.2788 3.5939.7857 5.2552L109.628 184.079c.913 6.06 6.1 10.544 12.209 10.544h72.984c7.452 0 13.485-6.06 13.485-13.528 0-7.476-6.041-13.527-13.485-13.527H138.93c-2.763-.017-5.112-2.043-5.526-4.781z" fill="#A67EE5" stroke="#fff" stroke-width="2" stroke-miterlimit="10"/>
  <path d="M177.238 154.913h-71.995l-2.129-14.189h68.472c5.466 0 9.902 4.45 9.902 9.934-.008 2.348-1.909 4.255-4.25 4.255z" fill="#A67EE5" stroke="#fff" stroke-width="2" stroke-miterlimit="10"/>
  <path d="M122.547 90.5375h57.488" stroke="#fff" stroke-width="2" stroke-miterlimit="10" stroke-linecap="round"/>
</svg>
